<?xml version="1.0" encoding="UTF-8" standalone="no"?>
<!-- Created with Inkscape (http://www.inkscape.org/) -->

<svg
   xmlns:dc="http://purl.org/dc/elements/1.1/"
   xmlns:cc="http://creativecommons.org/ns#"
   xmlns:rdf="http://www.w3.org/1999/02/22-rdf-syntax-ns#"
   xmlns:svg="http://www.w3.org/2000/svg"
   xmlns="http://www.w3.org/2000/svg"
   xmlns:sodipodi="http://sodipodi.sourceforge.net/DTD/sodipodi-0.dtd"
   xmlns:inkscape="http://www.inkscape.org/namespaces/inkscape"
   id="svg4190"
   version="1.1"
   inkscape:version="0.91 r13725"
   width="623.76367"
   height="300"
   viewBox="0 0 623.76367 300"
   sodipodi:docname="eitbjs.jpg.svg">
  <metadata
     id="metadata4196">
    <rdf:RDF>
      <cc:Work
         rdf:about="">
        <dc:format>image/svg+xml</dc:format>
        <dc:type
           rdf:resource="http://purl.org/dc/dcmitype/StillImage" />
        <dc:title></dc:title>
      </cc:Work>
    </rdf:RDF>
  </metadata>
  <defs
     id="defs4194">
    <inkscape:path-effect
       effect="spiro"
       id="path-effect4162"
       is_visible="true" />
    <inkscape:path-effect
       effect="spiro"
       id="path-effect4158"
       is_visible="true" />
    <inkscape:path-effect
       effect="spiro"
       id="path-effect4152"
       is_visible="true" />
    <inkscape:path-effect
       effect="spiro"
       id="path-effect4247"
       is_visible="true" />
    <inkscape:path-effect
       effect="spiro"
       id="path-effect4243"
       is_visible="true" />
    <inkscape:path-effect
       effect="spiro"
       id="path-effect4219"
       is_visible="true" />
    <inkscape:path-effect
       effect="spiro"
       id="path-effect4215"
       is_visible="true" />
  </defs>
  <sodipodi:namedview
     pagecolor="#ffffff"
     bordercolor="#666666"
     borderopacity="1"
     objecttolerance="10"
     gridtolerance="10"
     guidetolerance="10"
     inkscape:pageopacity="0"
     inkscape:pageshadow="2"
     inkscape:window-width="1920"
     inkscape:window-height="1056"
     id="namedview4192"
     showgrid="false"
     inkscape:zoom="0.74322918"
     inkscape:cx="330.77828"
     inkscape:cy="143.81256"
     inkscape:window-x="1366"
     inkscape:window-y="24"
     inkscape:window-maximized="1"
     inkscape:current-layer="layer2"
     fit-margin-top="0"
     fit-margin-left="0"
     fit-margin-right="0"
     fit-margin-bottom="0" />
  <g
     inkscape:groupmode="layer"
     id="layer1"
     inkscape:label="txoritxoa"
     style="opacity:1"
     transform="translate(-164.52576,-105)" />
  <g
     id="g4175"
     transform="matrix(1.2963046,0,0,1.2963046,-146.99772,-162.08232)">
    <g
       id="g4191">
      <ellipse
         style="fill:#3069c7;fill-opacity:1"
         id="path4201"
         cx="204.36589"
         cy="170.82658"
         rx="15.882751"
         ry="15.698068" />
      <path
         style="fill:#3069c7;fill-opacity:1;fill-rule:evenodd;stroke:#3069c7;stroke-width:1px;stroke-linecap:butt;stroke-linejoin:miter;stroke-opacity:1"
         d="m 259.00491,136.29292 c 1.05896,-2.42442 7.37894,-7.64381 4.87736,-10.25928 -3.05135,-1.33252 -6.55064,0.39885 -9.58654,1.17729 l -8.24107,2.35459 -10.59565,2.69096 -10.42748,3.02733 c -15.47767,2.18256 -12.26964,12.86268 3.36371,19.50946 l 18.66854,13.11843 c 16.05954,12.01877 28.65961,25.69785 41.03713,41.20533 l 8.24107,15.80939 c 10.87599,27.19081 0.30402,53.85928 -16.65032,73.16047 -19.29218,25.52766 -42.04327,25.76417 -30.94604,45.40996 15.44292,27.33912 40.97833,3.21161 48.89845,-10.8004 8.21351,-14.53105 26.90681,-59.79809 27.12117,-77.16036 l 0.16819,-13.62299 -1.85004,-13.95935 -4.54099,-13.62299 -5.88648,-11.26839 -6.39103,-10.42747 -9.41836,-11.60477 -6.7274,-7.23195 -8.24106,-7.9047 -7.73651,-6.89558 -6.89559,-6.05466 -5.71829,-5.04555 c -3.62637,-3.19127 -4.65682,-6.68572 -2.52277,-11.60477 z"
         id="path4211"
         inkscape:connector-curvature="0"
         sodipodi:nodetypes="cccccccccccssscccccccccccc" />
      <path
         style="fill:#3069c7;fill-opacity:1;fill-rule:evenodd;stroke:#3069c7;stroke-width:1px;stroke-linecap:butt;stroke-linejoin:miter;stroke-opacity:1"
         d="m 187.69446,234.17659 c -23.45932,4.55305 -67.10582,25.22776 -67.10582,25.22776 -6.78346,4.14856 -7.68044,9.97897 -5.88647,16.8185 1.81828,4.45872 3.69838,9.61979 7.18749,11.92227 1.9646,1.29646 4.19886,5.16522 11.64924,1.36434 0,0 50.43753,-23.60105 74.50595,-38.00981 1.8253,-1.09273 2.65433,-4.0246 2.01822,-6.05466 -1.90427,-6.07726 -9.23779,-9.50004 -15.30484,-11.43658 -2.24373,-0.71618 -4.75166,-0.28056 -7.06377,0.16818 z"
         id="path4217"
         inkscape:connector-curvature="0"
         sodipodi:nodetypes="sccssssss" />
      <path
         style="fill:#3069c7;fill-opacity:1;fill-rule:evenodd;stroke:#3069c7;stroke-width:0.99663115px;stroke-linecap:butt;stroke-linejoin:miter;stroke-opacity:1"
         d="m 144.5122,308.05978 95.38363,-53.36235 c 1.3778,-0.69657 3.05133,-0.78141 4.49251,-0.22775 0.94477,0.36295 1.78643,0.99017 2.40432,1.79176 0.6179,0.80158 1.01021,1.77517 1.12072,2.78121 0.92593,4.58955 0.9744,9.35451 0.14203,13.96194 -0.51925,2.87421 -1.43933,5.7184 -3.09623,8.12369 -1.65691,2.40529 -4.03067,4.20879 -6.45735,5.83421 l -75.38133,50.49127 c -1.67809,1.124 -3.3979,2.2283 -5.31036,2.8778 -1.91246,0.6495 -3.99332,0.8283 -5.97255,0.42579 -1.97923,-0.40251 -3.82226,-1.36812 -5.37543,-2.65926 -1.55317,-1.29113 -2.82491,-2.88832 -3.96486,-4.55562 -2.667,-3.90076 -4.7319,-8.43211 -4.62245,-13.15618 0.11219,-4.84228 2.65647,-9.56738 6.63735,-12.32651 z"
         id="path4160"
         inkscape:path-effect="#path-effect4162"
         inkscape:original-d="m 144.5122,308.05978 c 21.21968,-3.36051 77.27681,-60.10301 95.38363,-53.36235 1.22673,0.96375 3.74028,-1.46423 4.49251,-0.22775 0.75222,1.23646 3.18034,3.1743 3.52504,4.57297 0.78745,4.42554 -0.85187,9.91032 0.14203,13.96194 0.90256,3.67927 -5.82544,11.46074 -9.55358,13.9579 l -75.38133,50.49127 c -5.81336,3.89384 -15.31778,0.65046 -20.6232,-3.91129 -3.52449,-3.03047 -4.98478,-8.52213 -4.62245,-13.15618 0.36379,-4.65243 6.66746,-4.22881 6.63735,-12.32651 z"
         inkscape:connector-curvature="0"
         sodipodi:nodetypes="ccscsssssc" />
    </g>
  </g>
  <g
     inkscape:groupmode="layer"
     id="layer2"
     inkscape:label="js"
     transform="translate(-164.52576,-105)">
    <g
       id="g4187"
       transform="translate(-14.762421,56.972672)">
      <rect
         style="fill:#3069c7;fill-opacity:1"
         y="48.027328"
         x="503.05185"
         id="rect4"
         height="300"
         width="300" />
      <path
         style="fill:#ffffff;fill-opacity:1"
         inkscape:connector-curvature="0"
         id="path6"
         d="m 704.57566,282.40352 c 6.04286,9.86667 13.90476,17.11905 27.80953,17.11905 11.68095,0 19.14285,-5.8381 19.14285,-13.90476 0,-9.66667 -7.66666,-13.09048 -20.52381,-18.71429 l -7.04762,-3.02381 c -20.34285,-8.66667 -33.85714,-19.52381 -33.85714,-42.47619 0,-21.14286 16.10952,-37.2381 41.28572,-37.2381 17.9238,0 30.80952,6.2381 40.09523,22.57143 l -21.95238,14.09524 c -4.83333,-8.66667 -10.04762,-12.08095 -18.14285,-12.08095 -8.25715,0 -13.49048,5.23809 -13.49048,12.08095 0,8.45714 5.23809,11.88095 17.33333,17.11905 l 7.04762,3.01905 c 23.95238,10.27143 37.47619,20.74285 37.47619,44.28571 0,25.38095 -19.93809,39.28572 -46.71428,39.28572 -26.18096,0 -43.09524,-12.47619 -51.37143,-28.82858 z m -99.58571,2.44286 c 4.42857,7.85714 8.45714,14.5 18.14285,14.5 9.26191,0 15.10477,-3.62381 15.10477,-17.71429 l 0,-95.85714 28.19047,0 0,96.23809 c 0,29.19048 -17.11428,42.47619 -42.09524,42.47619 -22.57143,0 -35.64285,-11.68095 -42.29047,-25.75 z" />
    </g>
  </g>
</svg>
